HIERARCHY
ROOT root
{
	OFFSET	0	13.1	24.9
	CHANNELS 6  Xposition Yposition Zposition Xrotation Yrotation Zrotation
	JOINT spine_1
	{
		OFFSET	0	9.99999	0
		CHANNELS 3  Xrotation Yrotation Zrotation
		JOINT spine_2
		{
			OFFSET	0	112	-10
			CHANNELS 3  Xrotation Yrotation Zrotation
			JOINT spine_3
			{
				OFFSET	0	206.5	19.3
				CHANNELS 3  Xrotation Yrotation Zrotation
				JOINT spine_4
				{
					OFFSET	0	110.4	14.6
					CHANNELS 3  Xrotation Yrotation Zrotation
					JOINT neck_1
					{
						OFFSET	0	71.8	-50.3
						CHANNELS 3  Xrotation Yrotation Zrotation
						JOINT neck_2
						{
							OFFSET	0	86.2	-25.8
							CHANNELS 3  Xrotation Yrotation Zrotation
							JOINT head_ee
							{
								OFFSET	0	179.8	-8.7
								CHANNELS 3  Xrotation Yrotation Zrotation
								End Site
								{
									OFFSET	1	0	0
								}
							}
						}
					}
					JOINT left_clavicle
					{
						OFFSET	-43.2	22.4	-70.8
						CHANNELS 3  Xrotation Yrotation Zrotation
						JOINT left_shoulder
						{
							OFFSET	-93.9	-5.79999	48.7
							CHANNELS 3  Xrotation Yrotation Zrotation
							JOINT left_elbow
							{
								OFFSET	-291.4	-30.8	15.2
								CHANNELS 3  Xrotation Yrotation Zrotation
								JOINT left_lowarm_twist
								{
									OFFSET	-110.7	-3.89999	13.6
									CHANNELS 3  Xrotation Yrotation Zrotation
									JOINT left_hand
									{
										OFFSET	-110.7	-3.89999	13.6
										CHANNELS 3  Xrotation Yrotation Zrotation
										JOINT left_ee
										{
											OFFSET	-80.8	-5.10001	12.1
											CHANNELS 3  Xrotation Yrotation Zrotation
											End Site
											{
												OFFSET	1	0	0
											}
										}
									}
								}
							}
						}
					}
					JOINT right_clavicle
					{
						OFFSET	43.2	22.4	-70.8
						CHANNELS 3  Xrotation Yrotation Zrotation
						JOINT right_shoulder
						{
							OFFSET	93.9	-5.79999	48.7
							CHANNELS 3  Xrotation Yrotation Zrotation
							JOINT right_elbow
							{
								OFFSET	291.4	-30.8	15.2
								CHANNELS 3  Xrotation Yrotation Zrotation
								JOINT right_lowarm_twist
								{
									OFFSET	110.7	-3.89999	13.6
									CHANNELS 3  Xrotation Yrotation Zrotation
									JOINT right_hand
									{
										OFFSET	110.7	-3.89999	13.6
										CHANNELS 3  Xrotation Yrotation Zrotation
										JOINT right_ee
										{
											OFFSET	80.8	-5.10001	12.1
											CHANNELS 3  Xrotation Yrotation Zrotation
											End Site
											{
												OFFSET	1	0	0
											}
										}
									}
								}
							}
						}
					}
				}
			}
		}
	}
	JOINT left_hip
	{
		OFFSET	-82.8	-127.5	0.300001
		CHANNELS 3  Xrotation Yrotation Zrotation
		JOINT left_knee
		{
			OFFSET	-28.2	-396.7	2.2
			CHANNELS 3  Xrotation Yrotation Zrotation
			JOINT left_ankle
			{
				OFFSET	-11.7	-411.3	35.4
				CHANNELS 3  Xrotation Yrotation Zrotation
				JOINT left_toes
				{
					OFFSET	0	-60	-88.6
					CHANNELS 3  Xrotation Yrotation Zrotation
					JOINT left_foot_ee
					{
						OFFSET	-22.5	-16.5	-42.2
						CHANNELS 3  Xrotation Yrotation Zrotation
						End Site
						{
							OFFSET	1	0	0
						}
					}
				}
			}
		}
	}
	JOINT right_hip
	{
		OFFSET	82.8	-127.5	0.300001
		CHANNELS 3  Xrotation Yrotation Zrotation
		JOINT right_knee
		{
			OFFSET	28.2	-396.7	2.2
			CHANNELS 3  Xrotation Yrotation Zrotation
			JOINT right_ankle
			{
				OFFSET	11.7	-411.3	35.4
				CHANNELS 3  Xrotation Yrotation Zrotation
				JOINT right_toes
				{
					OFFSET	0	-60	-88.6
					CHANNELS 3  Xrotation Yrotation Zrotation
					JOINT right_foot_ee
					{
						OFFSET	22.5	-16.5	-42.2
						CHANNELS 3  Xrotation Yrotation Zrotation
						End Site
						{
							OFFSET	1	0	0
						}
					}
				}
			}
		}
	}
}
MOTION
Frames: 12
Frame Time: 0.02
2800.94 716.97 -1473.77 -18.694914415 72.3057627975 13.725910564 3.34489 0.224086 2.11589 3.34737 0.0890233 2.12586 3.34967 -0.236711 2.11452 3.34344 0.10013 2.12536 -5.62071 4.65057 -2.42837 -5.57948 10.3792 -1.61601 -0.0 0.0 -0.0 0.687825 13.9638 2.76489 20.1423 -33.5755 61.0574 2.52545 -51.355 1.21435 -46.6138 -3.68038 4.49419 -3.52254 10.125 -18.7133 -0.0 0.0 -0.0 7.87403 -7.32365 -15.1006 -27.1808 -4.9291 -60.9401 0.212718 6.01546 -0.0111769 -16.4042 0.85738 -1.90715 -1.58154 -28.7257 -2.66175 0.0 0.0 0.0 -10.058 -18.672 9.76957 4.09087 -0.189949 -0.598796 43.4342 25.0025 -5.48534 -31.1396 0.0 0.0 -0.0 0.0 -0.0 32.2488 27.9099 -2.2071 2.05571 0.090096 0.302561 -19.104 -13.6917 -2.88189 -7.1814 0.0 0.0 0.0 0.0 0.0 
2722.58784916 719.556 -1497.06955918 -27.1043301054 75.7248395667 23.0945763667 3.65289 0.356589 1.64321 3.65436 0.251319 1.66256 3.66096 0.00368379 1.68144 3.65711 0.269153 1.65977 0.532102 3.31309 -3.9512 0.665736 9.13657 -3.95836 -0.0 0.0 -0.0 -1.79356 17.94 -0.635291 12.6163 -36.85 64.5983 1.96418 -44.2111 0.797859 -45.385 -3.54119 4.42004 -3.34648 4.86041 -20.4061 -0.0 0.0 -0.0 8.3081 -6.80028 -15.943 -22.7343 -4.48014 -62.7887 0.279509 7.88327 -0.0192591 -11.5858 0.549166 -1.37323 -0.292763 -28.8788 -9.69763 0.0 0.0 0.0 -10.7312 -18.7597 8.50237 -3.21017 0.118798 0.478272 42.0267 26.1445 -5.39882 -24.1314 0.0 0.0 -0.0 0.0 -0.0 28.6256 26.8409 -2.19394 -1.67217 -0.0652306 -0.248321 -7.00213 -6.71917 -1.03982 -6.02534 0.0 0.0 0.0 0.0 0.0 
2723.10864928 719.556 -1498.7541919 -25.0521274945 74.6145168169 20.9717706877 3.65289 0.356589 1.64321 3.65436 0.251319 1.66256 3.66096 0.00368379 1.68144 3.65711 0.269153 1.65977 0.532102 3.31309 -3.9512 0.665736 9.13657 -3.95836 -0.0 0.0 -0.0 -1.79356 17.94 -0.635291 12.6163 -36.85 64.5983 1.96418 -44.2111 0.797859 -45.385 -3.54119 4.42004 -3.34648 4.86041 -20.4061 -0.0 0.0 -0.0 8.3081 -6.80028 -15.943 -22.7343 -4.48014 -62.7887 0.279509 7.88327 -0.0192591 -11.5858 0.549166 -1.37323 -0.292763 -28.8788 -9.69763 0.0 0.0 0.0 -10.7312 -18.7597 8.50237 -3.21017 0.118798 0.478272 42.0267 26.1445 -5.39882 -24.1314 0.0 0.0 -0.0 0.0 -0.0 28.6256 26.8409 -2.19394 -1.67217 -0.0652306 -0.248321 -7.00213 -6.71917 -1.03982 -6.02534 0.0 0.0 0.0 0.0 0.0 
2685.80659578 719.504 -1505.59678484 -28.3297046834 77.9368884404 23.9690784186 3.61974 0.210592 1.74546 3.62143 0.0991146 1.75532 3.62366 -0.161737 1.75066 3.6194 0.116733 1.75424 -0.230093 3.69366 -4.39266 -0.0744157 10.1692 -4.32568 -0.0 0.0 -0.0 -3.03103 19.4229 -2.23926 7.32968 -38.4478 65.0096 1.63922 -39.0742 0.581708 -44.4211 -3.43314 4.3598 -2.80391 5.86737 -16.1152 -0.0 0.0 -0.0 8.41364 -6.84347 -16.14 -20.1932 -3.97509 -64.0105 0.408752 11.4469 -0.0409681 -9.50303 0.430086 -1.13488 0.63269 -29.278 -14.9345 0.0 0.0 0.0 -10.3275 -17.3148 8.08096 -8.38677 0.253386 1.26103 41.9941 23.3762 -5.30239 -22.9852 0.0 0.0 -0.0 0.0 -0.0 24.4119 26.9803 -0.968032 -3.42027 -0.125635 -0.509791 4.72738 -3.26139 0.685812 -1.27916 0.0 0.0 0.0 0.0 0.0 
2686.46707812 719.504 -1507.89616527 -25.981319728 76.9156254964 21.563099566 3.61974 0.210592 1.74546 3.62143 0.0991146 1.75532 3.62366 -0.161737 1.75066 3.6194 0.116733 1.75424 -0.230093 3.69366 -4.39266 -0.0744157 10.1692 -4.32568 -0.0 0.0 -0.0 -3.03103 19.4229 -2.23926 7.32968 -38.4478 65.0096 1.63922 -39.0742 0.581708 -44.4211 -3.43314 4.3598 -2.80391 5.86737 -16.1152 -0.0 0.0 -0.0 8.41364 -6.84347 -16.14 -20.1932 -3.97509 -64.0105 0.408752 11.4469 -0.0409681 -9.50303 0.430086 -1.13488 0.63269 -29.278 -14.9345 0.0 0.0 0.0 -10.3275 -17.3148 8.08096 -8.38677 0.253386 1.26103 41.9941 23.3762 -5.30239 -22.9852 0.0 0.0 -0.0 0.0 -0.0 24.4119 26.9803 -0.968032 -3.42027 -0.125635 -0.509791 4.72738 -3.26139 0.685812 -1.27916 0.0 0.0 0.0 0.0 0.0 
2671.46483272 718.202 -1509.88041344 -29.5921940134 78.1935479865 24.9320417056 3.62193 0.189945 1.75818 3.62365 0.0777005 1.7667 3.62522 -0.184563 1.75875 3.62091 0.0954711 1.76583 -1.27066 3.86397 -4.11199 -1.13609 10.2393 -3.9008 -0.0 0.0 -0.0 -4.25302 20.1253 -3.90861 4.52271 -40.7898 65.3316 1.66134 -39.4506 0.595711 -44.379 -3.42844 4.35713 -2.03999 3.55193 -12.0738 -0.0 0.0 -0.0 8.55362 -6.62383 -16.4182 -18.6094 -3.38347 -65.0471 0.411338 11.5174 -0.0414829 -8.48353 0.374983 -1.01669 1.17117 -29.2974 -17.9732 0.0 0.0 0.0 -8.96398 -16.7211 7.8551 -11.8293 0.303515 1.7868 42.0989 22.0896 -5.27353 -20.9429 0.0 0.0 -0.0 0.0 -0.0 21.7789 24.359 0.0254198 -1.47387 -0.0578744 -0.218776 9.05308 -4.57121 1.29321 -2.26548 0.0 0.0 0.0 0.0 0.0 
2653.03063886 719.371 -1510.24037408 -31.7193958508 79.6139446992 26.8001574058 3.58476 0.309435 1.77999 3.58651 0.195561 1.79606 3.59183 -0.0733401 1.80519 3.58735 0.212629 1.79412 -1.43571 4.66614 -4.4016 -1.26833 11.9112 -4.09688 -0.0 0.0 -0.0 -4.40039 20.5845 -4.01841 1.07648 -40.2305 64.921 1.4707 -36.0726 0.478913 -43.4904 -3.32978 4.29992 -1.99191 4.91029 -11.1011 -0.0 0.0 -0.0 8.84159 -6.43764 -16.9783 -15.771 -2.8304 -65.6715 0.526306 14.6128 -0.0674818 -7.39554 0.318514 -0.889517 1.22404 -29.3524 -18.2891 0.0 0.0 0.0 -8.71838 -16.283 7.96518 -12.8539 0.312325 1.94376 41.5401 20.847 -5.18969 -22.338 0.0 0.0 -0.0 0.0 -0.0 20.6708 26.055 0.00540455 -2.8177 -0.105716 -0.41946 12.2057 -3.84617 1.72525 0.738422 -0.0 -0.0 0.0 0.0 0.0 
2653.37113192 719.371 -1511.59454856 -30.2756987096 79.1637392335 25.331356873 3.58476 0.309435 1.77999 3.58651 0.195561 1.79606 3.59183 -0.0733401 1.80519 3.58735 0.212629 1.79412 -1.43571 4.66614 -4.4016 -1.26833 11.9112 -4.09688 -0.0 0.0 -0.0 -4.40039 20.5845 -4.01841 1.07648 -40.2305 64.921 1.4707 -36.0726 0.478913 -43.4904 -3.32978 4.29992 -1.99191 4.91029 -11.1011 -0.0 0.0 -0.0 8.84159 -6.43764 -16.9783 -15.771 -2.8304 -65.6715 0.526306 14.6128 -0.0674818 -7.39554 0.318514 -0.889517 1.22404 -29.3524 -18.2891 0.0 0.0 0.0 -8.71838 -16.283 7.96518 -12.8539 0.312325 1.94376 41.5401 20.847 -5.18969 -22.338 0.0 0.0 -0.0 0.0 -0.0 20.6708 26.055 0.00540455 -2.8177 -0.105716 -0.41946 12.2057 -3.84617 1.72525 0.738422 -0.0 -0.0 0.0 0.0 0.0 
2654.02537274 719.371 -1514.0609369 -27.9299933082 78.3250084272 22.9397269342 3.58476 0.309435 1.77999 3.58651 0.195561 1.79606 3.59183 -0.0733401 1.80519 3.58735 0.212629 1.79412 -1.43571 4.66614 -4.4016 -1.26833 11.9112 -4.09688 -0.0 0.0 -0.0 -4.40039 20.5845 -4.01841 1.07648 -40.2305 64.921 1.4707 -36.0726 0.478913 -43.4904 -3.32978 4.29992 -1.99191 4.91029 -11.1011 -0.0 0.0 -0.0 8.84159 -6.43764 -16.9783 -15.771 -2.8304 -65.6715 0.526306 14.6128 -0.0674818 -7.39554 0.318514 -0.889517 1.22404 -29.3524 -18.2891 0.0 0.0 0.0 -8.71838 -16.283 7.96518 -12.8539 0.312325 1.94376 41.5401 20.847 -5.18969 -22.338 0.0 0.0 -0.0 0.0 -0.0 20.6708 26.055 0.00540455 -2.8177 -0.105716 -0.41946 12.2057 -3.84617 1.72525 0.738422 -0.0 -0.0 0.0 0.0 0.0 
2632.40692314 723.207 -1511.15416249 -25.1579663317 79.6607620664 19.4359707671 3.38148 0.34898 1.96987 3.38361 0.22295 1.98807 3.39049 -0.0817923 1.99886 3.38499 0.234853 1.9867 -2.22163 5.22736 -4.67575 -2.04029 13.1384 -4.22408 -0.0 0.0 -0.0 -4.89247 22.9468 -4.14416 -1.54239 -41.0502 64.9336 1.36689 -34.1008 0.419233 -42.0173 -3.16822 4.20175 -1.43455 5.20949 -7.25194 -0.0 0.0 -0.0 9.10751 -5.51478 -17.55 -19.602 4.32769 -66.0854 0.951011 25.2248 -0.212797 -2.72579 0.103981 -0.332493 2.1837 -28.8301 -23.7822 0.0 0.0 0.0 -6.9092 -13.5816 7.88513 -20.4847 0.289561 3.11348 41.6148 18.11 -5.13215 -17.1677 0.0 0.0 -0.0 0.0 -0.0 15.3466 26.1301 1.48778 1.8179 0.0791178 0.267725 10.0827 -7.05953 1.4329 0.632351 -0.0 -0.0 0.0 0.0 0.0 
2633.03419599 723.207 -1513.87753771 -23.1606279399 78.814309623 17.4029326097 3.38148 0.34898 1.96987 3.38361 0.22295 1.98807 3.39049 -0.0817923 1.99886 3.38499 0.234853 1.9867 -2.22163 5.22736 -4.67575 -2.04029 13.1384 -4.22408 -0.0 0.0 -0.0 -4.89247 22.9468 -4.14416 -1.54239 -41.0502 64.9336 1.36689 -34.1008 0.419233 -42.0173 -3.16822 4.20175 -1.43455 5.20949 -7.25194 -0.0 0.0 -0.0 9.10751 -5.51478 -17.55 -19.602 4.32769 -66.0854 0.951011 25.2248 -0.212797 -2.72579 0.103981 -0.332493 2.1837 -28.8301 -23.7822 0.0 0.0 0.0 -6.9092 -13.5816 7.88513 -20.4847 0.289561 3.11348 41.6148 18.11 -5.13215 -17.1677 0.0 0.0 -0.0 0.0 -0.0 15.3466 26.1301 1.48778 1.8179 0.0791178 0.267725 10.0827 -7.05953 1.4329 0.632351 -0.0 -0.0 0.0 0.0 0.0 
2619.34705382 723.921 -1516.81906499 -16.9439752628 79.1004726418 10.9782495278 3.16856 0.410838 2.06612 3.17089 0.278562 2.08806 3.18025 -0.0497227 2.10597 3.17418 0.283425 2.08741 -2.77262 5.72854 -5.00402 -2.57408 14.3011 -4.43173 -0.0 0.0 -0.0 -4.88861 22.3091 -4.30151 -3.91204 -41.7576 64.4144 1.18233 -30.356 0.320754 -42.3074 -3.19983 4.22141 -1.07515 5.73417 -4.64656 -0.0 0.0 -0.0 9.50562 -1.99662 -18.5448 -18.4515 6.40192 -66.6549 1.32199 33.2181 -0.394345 -0.731449 0.026346 -0.0896951 2.40791 -29.6999 -25.3098 0.0 0.0 0.0 -5.40261 -11.7337 7.86196 -26.0885 0.173904 3.96529 41.4002 16.824 -5.08772 -13.8509 0.0 0.0 -0.0 0.0 -0.0 10.6865 26.0144 2.12948 5.62628 0.272229 0.819889 10.2413 -8.25003 1.45452 1.41429 -0.0 -0.0 0.0 0.0 0.0 
